<?xml version="1.0" standalone="no"?>
<!DOCTYPE svg PUBLIC "-//W3C//DTD SVG 20010904//EN"
 "http://www.w3.org/TR/2001/REC-SVG-20010904/DTD/svg10.dtd">
<svg version="1.0" xmlns="http://www.w3.org/2000/svg"
 width="300.000000pt" height="300.000000pt" viewBox="0 0 300.000000 300.000000"
 preserveAspectRatio="xMidYMid meet">
<metadata>
Created by potrace 1.10, written by Peter Selinger 2001-2011
</metadata>
<g transform="translate(0.000000,300.000000) scale(0.100000,-0.100000)"
fill="#000000" stroke="none">
<path d="M1327 2989 c-48 -5 -116 -16 -150 -25 -34 -9 -69 -17 -77 -19 -83
-19 -275 -100 -358 -152 -29 -18 -55 -33 -57 -33 -8 0 -134 -99 -184 -145 -74
-67 -157 -157 -203 -220 -48 -65 -138 -208 -138 -218 0 -3 -13 -34 -29 -69
-46 -100 -82 -209 -107 -332 -15 -72 -25 -248 -19 -346 21 -382 162 -707 423
-974 161 -164 326 -274 526 -350 170 -65 282 -89 474 -102 81 -5 264 6 346 22
246 47 497 166 685 323 44 38 146 138 186 184 130 150 247 371 302 572 50 185
62 471 27 660 -27 151 -70 279 -136 408 -48 93 -51 99 -97 167 -130 192 -330
374 -521 475 -30 16 -70 37 -87 47 -18 10 -33 15 -33 13 0 -3 -12 1 -27 8 -65
32 -224 80 -310 92 -21 3 -44 8 -52 11 -29 10 -299 12 -384 3z m368 -23 c79
-12 186 -36 205 -46 11 -6 20 -8 20 -6 0 3 20 -3 45 -14 25 -11 49 -20 53 -21
4 -1 17 -5 30 -10 13 -5 25 -9 28 -9 19 0 178 -89 274 -153 96 -65 292 -260
357 -357 100 -150 201 -371 229 -502 18 -89 26 -130 32 -183 11 -92 7 -323 -6
-385 -7 -30 -14 -64 -16 -75 -3 -11 -9 -40 -15 -65 -7 -25 -13 -52 -15 -61 -2
-8 -11 -32 -20 -52 -8 -20 -13 -37 -11 -37 5 0 -49 -124 -66 -154 -6 -11 -23
-40 -37 -65 -61 -111 -125 -194 -237 -307 -132 -133 -202 -186 -346 -263 -87
-46 -279 -125 -279 -115 0 3 -8 0 -18 -5 -11 -6 -30 -12 -43 -15 -13 -3 -49
-10 -79 -16 -177 -35 -346 -34 -590 5 -40 6 -198 54 -238 72 -20 9 -39 17 -42
17 -34 8 -182 93 -258 148 -204 147 -419 402 -489 580 -9 24 -22 52 -29 63
-10 15 -39 101 -49 145 -1 3 -7 25 -15 50 -7 25 -14 58 -16 73 -2 16 -6 32 -8
36 -16 25 -25 359 -13 451 15 110 35 199 58 255 4 11 13 38 20 60 6 22 17 49
22 60 6 11 12 22 12 25 6 26 72 145 129 230 149 221 404 437 620 526 33 14 70
29 81 34 23 10 85 29 100 31 6 1 17 5 26 10 16 8 39 13 109 25 19 3 38 8 42
10 4 3 36 7 70 11 35 3 65 7 66 8 5 5 269 -4 307 -9z"/>
<path d="M1431 2906 c7 -8 129 -10 136 -3 3 4 -27 7 -67 7 -40 0 -71 -2 -69
-4z"/>
<path d="M1348 2895 c-7 -7 -80 -17 -125 -17 -13 0 -23 -3 -23 -7 0 -4 -6 -8
-12 -9 -19 -1 -140 -31 -158 -39 -8 -3 -18 -5 -22 -5 -5 1 -8 -3 -8 -9 0 -6
-7 -9 -15 -5 -8 3 -15 1 -15 -5 0 -6 -4 -8 -9 -5 -5 3 -14 -1 -21 -9 -7 -8
-20 -15 -30 -15 -10 0 -23 -7 -30 -15 -7 -9 -15 -13 -18 -10 -3 3 -12 -1 -21
-9 -9 -8 -18 -14 -21 -14 -7 2 -154 -96 -158 -104 -2 -5 -8 -8 -13 -8 -5 0
-23 -12 -40 -27 -37 -33 -169 -165 -169 -170 0 -2 -8 -11 -17 -21 -10 -10 -27
-31 -38 -46 -11 -16 -25 -33 -30 -40 -18 -20 -100 -160 -98 -167 1 -4 -4 -13
-12 -19 -8 -7 -15 -18 -15 -24 0 -17 -24 -66 -32 -66 -4 0 -5 -7 -2 -15 4 -8
1 -15 -7 -15 -7 0 -10 -3 -6 -6 3 -4 -1 -23 -9 -43 -9 -20 -18 -45 -20 -56 -7
-26 -14 -67 -16 -82 -1 -7 -5 -13 -9 -13 -4 0 -7 -10 -7 -22 0 -37 -10 -112
-16 -128 -3 -8 -2 -37 2 -65 8 -49 8 -48 15 41 23 309 162 604 397 843 227
232 494 363 823 406 56 7 95 13 86 14 -9 0 -29 4 -45 7 -16 3 -32 2 -36 -1z"/>
<path d="M1585 2892 c-21 -4 1 -9 70 -18 55 -7 109 -15 120 -18 273 -61 499
-183 695 -376 77 -75 168 -190 211 -265 12 -22 33 -58 45 -80 27 -48 83 -186
96 -235 5 -19 11 -42 13 -50 32 -106 39 -166 39 -340 1 -144 -3 -204 -18 -269
-37 -171 -110 -356 -186 -467 -16 -25 -30 -47 -30 -50 0 -5 -40 -58 -90 -118
-94 -115 -263 -250 -404 -324 -104 -55 -279 -118 -381 -138 -186 -36 -451 -28
-610 20 -5 2 -23 6 -40 10 -90 23 -303 119 -349 157 -6 5 -30 22 -53 37 -119
77 -268 228 -363 367 -85 124 -181 350 -205 485 -19 101 -24 139 -24 184 -1
27 -3 47 -6 44 -8 -8 -12 -128 -4 -128 4 0 8 -15 8 -32 2 -58 5 -78 12 -78 3
0 5 -11 4 -25 -2 -14 1 -25 7 -25 6 0 8 -7 5 -15 -4 -8 -2 -17 4 -21 6 -3 8
-12 5 -20 -3 -8 -1 -14 4 -14 6 0 9 -3 9 -7 -1 -5 0 -10 1 -13 1 -3 3 -12 5
-20 2 -8 8 -28 15 -45 6 -16 11 -32 12 -35 0 -3 4 -11 10 -17 6 -7 7 -13 3
-13 -5 0 -1 -8 7 -17 17 -20 32 -54 30 -65 -1 -5 3 -8 9 -8 5 0 7 -4 4 -10 -3
-5 -1 -10 5 -10 6 0 8 -4 5 -10 -3 -5 -1 -10 5 -10 6 0 8 -5 5 -10 -3 -6 1
-13 9 -16 9 -3 14 -10 11 -14 -3 -5 1 -12 8 -17 15 -9 61 -73 53 -73 -3 0 10
-17 29 -37 19 -20 35 -43 35 -51 0 -7 5 -10 10 -7 6 3 10 1 10 -6 0 -13 118
-129 132 -129 5 0 6 -4 3 -10 -3 -5 1 -10 10 -10 8 0 18 -7 21 -15 4 -8 10
-15 16 -15 5 0 16 -6 23 -13 31 -27 43 -36 73 -51 18 -9 32 -21 32 -27 0 -6 4
-7 10 -4 5 3 10 1 10 -5 0 -6 4 -8 10 -5 5 3 10 1 10 -4 0 -6 6 -11 14 -11 7
0 25 -9 40 -21 14 -11 26 -18 26 -14 0 3 20 -6 45 -20 25 -13 49 -25 53 -26
10 -2 30 -8 50 -16 22 -8 32 -11 59 -17 12 -2 30 -9 40 -14 10 -5 24 -7 31 -5
6 3 12 0 12 -5 0 -6 11 -9 25 -7 14 1 25 -1 25 -4 0 -3 10 -7 23 -7 12 -1 47
-5 77 -9 71 -9 330 -12 330 -4 0 4 19 7 43 8 79 2 87 3 87 10 0 4 8 8 18 9 36
3 58 8 70 16 6 4 17 4 22 1 6 -3 10 -1 10 6 0 7 3 9 7 6 3 -4 11 -3 17 2 6 5
25 11 43 14 17 3 38 9 45 13 7 5 15 9 18 9 23 3 216 110 253 141 16 13 34 24
40 24 7 0 21 11 31 25 10 13 21 23 25 21 3 -1 52 44 109 101 56 56 99 103 95
103 -4 0 2 8 13 19 36 35 58 66 114 166 69 124 118 237 122 283 1 6 5 12 10
12 5 0 6 5 3 10 -3 6 -3 16 1 22 8 13 14 41 15 71 0 9 3 17 7 17 7 0 10 23 13
88 0 17 4 32 7 32 4 0 7 72 7 160 0 88 -3 160 -7 160 -5 0 -8 15 -8 33 0 30
-6 92 -10 92 -2 0 -10 35 -15 62 -2 12 -6 27 -10 32 -3 6 -8 21 -11 33 -3 13
-6 28 -8 33 -1 6 -7 19 -13 30 -6 11 -11 23 -12 28 -2 17 -6 29 -21 62 -7 17
-13 33 -12 38 1 4 -3 7 -10 7 -6 0 -8 3 -5 6 3 4 -3 18 -13 32 -11 13 -20 31
-20 38 0 8 -5 14 -11 14 -5 0 -7 5 -4 10 3 6 1 10 -5 10 -6 0 -9 4 -5 9 3 6
-1 13 -8 18 -15 9 -61 73 -53 73 3 0 -5 10 -17 23 -12 12 -33 38 -47 56 -32
43 -126 138 -170 171 -19 14 -44 35 -56 47 -12 12 -24 20 -26 17 -3 -2 -17 7
-31 20 -15 14 -41 33 -59 43 -18 10 -35 20 -38 23 -3 3 -11 6 -19 8 -8 2 -35
15 -60 30 -25 14 -54 28 -64 29 -10 2 -36 12 -57 23 -22 11 -40 18 -40 14 0
-4 -6 -1 -13 5 -8 6 -17 8 -20 4 -4 -3 -7 -1 -7 6 0 7 -4 10 -8 7 -5 -3 -26 0
-48 6 -21 7 -42 13 -46 14 -5 1 -9 2 -10 4 -4 2 -45 9 -93 14 -22 2 -51 6 -65
9 -14 2 -38 2 -55 -1z"/>
<path d="M1347 2660 c-88 -15 -178 -86 -212 -167 -9 -20 -52 -140 -96 -267
-112 -320 -340 -972 -401 -1143 -58 -162 -58 -196 -6 -245 l30 -28 213 0 c203
0 213 1 245 22 66 46 36 -33 461 1186 98 282 179 520 179 529 0 8 -8 31 -17
50 -27 58 -74 73 -223 72 -69 -1 -146 -5 -173 -9z m284 -20 c67 -12 99 -44 99
-98 0 -20 -22 -100 -50 -177 -27 -77 -83 -239 -125 -360 -42 -121 -85 -245
-96 -275 -12 -30 -52 -147 -91 -260 -39 -113 -76 -218 -83 -235 -7 -16 -34
-93 -60 -170 -26 -77 -58 -155 -72 -173 -44 -59 -63 -63 -276 -63 -210 1 -226
5 -255 64 -16 33 -10 56 68 277 35 96 84 236 111 310 26 74 71 203 99 285 28
83 55 159 60 170 5 11 20 54 34 95 60 183 139 400 165 456 44 93 117 144 226
157 66 8 195 6 246 -3z"/>
<path d="M1900 2205 c-6 -15 -63 -176 -128 -358 -114 -324 -117 -334 -117
-417 0 -75 5 -99 43 -205 24 -66 57 -158 73 -205 45 -128 54 -146 95 -177 l37
-28 213 -3 c144 -2 220 1 234 8 30 16 60 69 60 105 -1 17 -101 316 -223 665
-217 619 -224 635 -250 638 -21 3 -29 -2 -37 -23z m63 -42 c9 -21 41 -110 71
-198 30 -88 75 -216 99 -285 24 -69 54 -154 67 -190 12 -36 54 -155 92 -265
91 -262 101 -293 94 -319 -7 -27 -35 -60 -59 -69 -10 -4 -103 -7 -208 -7 -164
-1 -193 1 -219 17 -44 26 -73 75 -109 183 -18 52 -36 104 -41 115 -5 11 -26
69 -46 130 -55 165 -55 163 91 570 25 72 60 171 76 220 31 91 53 135 68 135 4
0 15 -17 24 -37z"/>
<path d="M93 1505 c0 -33 2 -45 4 -27 2 18 2 45 0 60 -2 15 -4 0 -4 -33z"/>
<path d="M616 769 c-18 -53 -56 -189 -56 -198 0 -26 18 -8 24 24 6 32 10 35
40 35 31 0 34 -3 40 -35 7 -33 26 -59 26 -33 0 20 -52 202 -61 212 -5 6 -10 3
-13 -5z m27 -90 c6 -23 3 -27 -18 -31 -14 -3 -25 -3 -25 -1 0 2 5 25 12 50 12
48 16 46 31 -18z"/>
<path d="M1242 767 c-15 -17 1 -42 23 -33 18 6 17 37 -1 43 -6 2 -16 -2 -22
-10z"/>
<path d="M1891 674 c-18 -58 -29 -109 -26 -112 9 -9 25 20 25 46 0 18 5 22 35
22 32 0 35 -3 45 -40 6 -22 15 -38 19 -36 9 6 -48 226 -59 226 -4 0 -21 -48
-39 -106z m55 10 c6 -40 5 -41 -18 -37 -23 4 -24 6 -14 49 12 50 22 46 32 -12z"/>
<path d="M893 713 c-7 -2 -13 -12 -13 -20 0 -12 3 -13 14 -3 8 6 25 10 38 8
18 -2 24 -10 26 -38 2 -23 0 -30 -6 -22 -5 8 -22 12 -38 10 -25 -3 -29 -8 -32
-40 -4 -44 24 -66 58 -48 11 6 31 8 45 4 14 -3 25 -2 25 4 0 5 -9 12 -20 15
-17 4 -19 11 -14 51 5 37 3 51 -11 66 -17 19 -46 24 -72 13z m45 -85 c17 -17
15 -45 -4 -52 -18 -7 -44 10 -44 28 0 13 20 36 30 36 3 0 11 -5 18 -12z"/>
<path d="M716 635 c0 -89 9 -106 17 -35 3 27 10 58 16 68 8 15 11 14 20 -11 6
-16 11 -47 11 -69 0 -55 13 -40 17 20 2 26 6 54 9 62 11 29 34 -22 34 -74 0
-36 3 -47 11 -39 17 17 1 121 -21 133 -13 7 -21 5 -30 -5 -10 -13 -14 -13 -27
1 -12 11 -18 12 -29 3 -11 -9 -14 -8 -14 5 0 9 -3 16 -7 16 -5 0 -8 -34 -7
-75z"/>
<path d="M1248 703 c-8 -16 4 -153 13 -153 12 0 12 147 0 155 -5 3 -11 2 -13
-2z"/>
<path d="M1371 633 c-1 -49 3 -83 9 -83 6 0 10 24 10 53 0 42 5 58 21 73 20
18 21 18 35 -1 8 -10 14 -42 14 -72 0 -29 5 -53 10 -53 13 0 13 91 0 124 -7
20 -16 26 -40 26 -20 0 -33 -6 -37 -17 -6 -15 -8 -14 -14 7 -4 15 -7 -8 -8
-57z"/>
<path d="M2370 692 c-32 -26 -19 -55 31 -75 46 -18 48 -40 5 -45 -18 -2 -32 3
-41 15 -19 26 -28 11 -9 -15 30 -43 125 -17 98 26 -6 10 -28 25 -48 35 -25 12
-36 23 -34 35 4 21 44 28 64 11 8 -6 18 -9 22 -5 9 10 -27 36 -49 36 -9 0 -27
-8 -39 -18z"/>
<path d="M1036 689 c4 -7 25 -9 55 -7 27 3 49 3 49 0 0 -3 -20 -30 -45 -60
-25 -30 -42 -58 -39 -63 7 -12 101 -12 109 0 3 6 -15 11 -40 13 l-45 3 45 55
c24 30 44 58 45 63 0 4 -32 7 -71 7 -49 0 -68 -3 -63 -11z"/>
<path d="M1540 680 c-24 -24 -26 -58 -4 -89 14 -19 23 -22 50 -18 30 5 32 4
25 -16 -7 -17 -16 -22 -45 -21 -30 1 -34 -1 -25 -12 15 -19 54 -18 73 2 24 24
27 151 4 166 -23 14 -57 9 -78 -12z m68 -12 c28 -28 7 -78 -34 -78 -22 0 -34
17 -34 49 0 21 19 41 40 41 9 0 21 -5 28 -12z"/>
<path d="M2046 678 c-18 -26 -23 -153 -6 -163 6 -4 10 10 10 35 0 37 2 40 19
30 11 -5 24 -10 30 -10 21 0 51 40 51 68 0 57 -73 85 -104 40z m68 -1 c22 -16
18 -65 -6 -81 -40 -25 -77 43 -43 78 20 19 26 20 49 3z"/>
<path d="M2206 678 c-18 -26 -23 -168 -6 -168 6 0 10 18 10 40 0 37 2 40 19
30 11 -5 24 -10 30 -10 21 0 51 40 51 68 0 57 -73 85 -104 40z m68 -1 c22 -16
18 -65 -6 -81 -40 -25 -77 43 -43 78 20 19 26 20 49 3z"/>
</g>
</svg>
